<?xml version="1.0" encoding="utf-8"?>
<!DOCTYPE svg PUBLIC "-//W3C//DTD SVG 1.0//EN" "http://www.w3.org/TR/2001/REC-SVG-20010904/DTD/svg10.dtd">
<svg version="1.0" xmlns="http://www.w3.org/2000/svg" width="757px" height="711px" viewBox="0 0 757 711" preserveAspectRatio="xMidYMid meet">
 <g fill="#ce342f">
  <path d="M681.37 689.47 c-3.66 -1.29 -9.46 -5.52 -12.98 -9.39 -5.95 -6.52 -11.90 -22.01 -15.27 -39.50 -1.72 -8.60 -1.86 -14.34 -0.72 -19.93 2.29 -10.54 6.24 -14.62 21.29 -22.37 5.88 -3.01 11.25 -6.09 11.97 -6.88 0.72 -0.79 2.08 -4.23 2.94 -7.74 2.01 -7.38 3.23 -8.75 8.17 -8.75 4.30 0 6.74 2.22 8.24 7.46 1.22 4.37 4.30 25.95 5.45 38.42 1.58 17.13 -0.72 30.39 -8.46 49.46 -7.31 17.92 -11.97 22.29 -20.65 19.21z m5.45 -19.28 c2.58 -5.23 7.53 -19.57 8.89 -26.31 1.36 -6.45 1.36 -21.29 -0.07 -31.18 -0.65 -4.44 -1.36 -8.24 -1.65 -8.60 -0.86 -0.86 -22.37 10.75 -24.95 13.41 -3.37 3.66 -4.23 8.67 -2.80 17.56 1.29 8.03 5.23 21.79 8.24 28.39 2.15 4.66 7.38 11.11 9.10 11.11 0.57 0 2.01 -2.01 3.23 -4.37z"/>
  <path d="M367.96 642.66 c-5.02 -1.36 -11.11 -4.52 -20.65 -10.61 -9.96 -6.45 -23.87 -13.33 -32.47 -16.20 -7.74 -2.58 -11.33 -2.87 -11.90 -0.93 -0.29 0.72 -1.36 2.22 -2.51 3.30 -1.86 1.79 -2.94 2.15 -8.82 2.72 -3.66 0.43 -10.54 0.57 -15.27 0.36 -10.18 -0.43 -12.40 -1.08 -39.07 -11.61 -9.68 -3.87 -20.07 -7.89 -23.08 -9.03 -11.68 -4.30 -15.27 -7.03 -17.56 -13.19 -1.29 -3.44 -1.58 -3.66 -8.46 -7.31 -11.25 -5.81 -12.26 -7.96 -7.38 -15.63 11.11 -17.42 14.77 -30.32 19.93 -70.25 4.09 -31.69 8.03 -59.71 8.67 -61.86 1 -3.15 3.51 -4.66 7.10 -4.30 1.58 0.14 2.87 0 2.87 -0.29 0 -0.29 -1.72 -2.51 -3.80 -5.02 -8.46 -10.04 -9.25 -12.76 -5.88 -21.65 2.01 -5.38 2.22 -8.32 0.79 -14.12 -1.58 -6.81 -2.87 -8.32 -10.82 -12.40 -3.94 -2.01 -8.67 -4.73 -10.47 -5.95 -5.02 -3.51 -13.55 -13.05 -16.92 -18.92 -2.94 -5.09 -5.73 -13.62 -4.95 -14.91 0.93 -1.43 0.57 -11.54 -0.36 -12.76 -0.57 -0.65 -3.58 -2.80 -6.74 -4.87 -7.31 -4.66 -9.32 -7.10 -10.39 -12.33 -0.50 -2.29 -1 -4.52 -1.15 -5.02 -0.07 -0.50 -1.43 -1.15 -2.94 -1.58 -1.51 -0.43 -5.81 -1.58 -9.53 -2.58 -4.37 -1.15 -11.11 -3.94 -19 -7.89 -20.65 -10.18 -26.81 -12.04 -37.56 -11.11 -11.47 1 -15.27 -0.57 -18.71 -7.81 -1.29 -2.87 -2.44 -4.09 -5.30 -5.73 -5.45 -3.08 -6.52 -4.52 -6.52 -9.18 0 -3.58 0.22 -4.09 2.58 -6.16 1.36 -1.29 3.44 -3.01 4.66 -3.80 l2.08 -1.58 -2.51 -1.29 c-9.53 -5.16 -12.47 -14.62 -7.03 -22.80 4.80 -7.38 15.05 -11.61 36.06 -15.13 7.89 -1.29 16.27 -3.08 18.64 -3.94 9.96 -3.66 13.12 -4.44 17.92 -4.59 8.53 -0.14 15.13 4.01 23.73 14.98 l2.29 2.80 8.82 -1.29 c5.59 -0.86 14.12 -1.51 22.87 -1.65 7.67 -0.14 14.34 -0.43 14.77 -0.57 0.57 -0.14 0.57 -1.94 -0.22 -6.60 -1.65 -10.47 -4.95 -21.86 -9.96 -34.41 -7.17 -17.85 -7.60 -24.80 -1.79 -28.67 2.37 -1.58 3.01 -1.65 17.42 -1.65 16.34 0 17.78 0.29 20.50 4.09 0.79 1.15 1.94 3.94 2.58 6.31 2.65 9.39 6.31 11.97 21.08 14.98 10.54 2.22 20.36 2.44 25.16 0.57 l3.08 -1.22 0.14 -5.73 c0.22 -7.46 2.51 -12.47 7.96 -17.42 4.87 -4.52 7.96 -6.24 22.15 -12.40 19.28 -8.32 26.88 -13.41 30.75 -20.65 2.51 -4.52 4.09 -11.68 4.09 -18.71 0.07 -8.53 1.29 -18.21 2.87 -22.51 2.08 -5.45 6.95 -10.68 12.40 -13.26 7.81 -3.73 20.93 -7.10 29.75 -7.67 7.24 -0.43 8.10 -0.36 10.32 1 3.08 1.94 3.58 2.87 5.88 10.32 1 3.44 2.72 7.24 3.73 8.39 1.79 2.15 2.01 2.22 8.10 2.22 7.74 0 11.40 1.65 15.13 6.74 6.02 8.32 7.10 9.53 10.39 12.04 1.94 1.43 8.03 5.02 13.55 7.89 14.77 7.67 16.92 9.96 18.78 20.07 1.22 6.16 2.44 8.46 4.73 8.46 0.72 0 4.09 -2.58 7.38 -5.66 6.24 -5.88 9.03 -7.24 12.69 -6.16 4.09 1.29 5.81 4.30 7.74 13.69 2.08 9.96 3.37 12.54 8.53 16.34 2.44 1.72 5.88 3.73 7.67 4.44 l3.30 1.22 7.38 -2.22 c4.09 -1.29 8.03 -2.29 8.82 -2.29 1.58 0 9.10 4.44 11.76 6.95 1.72 1.65 2.29 1.79 4.66 1.22 3.87 -0.79 10.11 -0.65 13.76 0.36 4.44 1.22 6.88 3.94 7.89 8.67 1.72 7.89 6.60 13.33 13.98 15.41 2.01 0.57 8.03 1.58 13.33 2.22 14.55 1.72 34.34 7.24 40.29 11.33 3.73 2.51 5.59 5.81 5.59 10.04 0 3.15 -0.93 5.66 -7.46 19.07 -10.90 22.44 -14.41 33.55 -16.20 51.61 -2.37 23.80 -3.08 26.45 -8.60 30.82 -3.15 2.51 -9.61 4.16 -16.56 4.23 -1.86 0.07 -3.66 0.50 -4.09 1 -0.43 0.50 -1.58 3.23 -2.51 5.95 -2.15 6.31 -4.01 9.18 -10.97 17.06 -13.26 14.98 -18.78 22.72 -21.43 30.25 -1.79 4.95 -2.22 7.81 -1.22 7.31 7.67 -3.94 13.55 -5.02 18.49 -3.44 3.66 1.22 8.32 5.66 10.18 9.82 0.86 1.86 3.15 7.60 5.16 12.76 4.44 11.25 4.73 14.55 1.86 22.87 -2.29 6.45 -2.37 6.09 3.30 15.48 4.80 7.96 6.02 12.62 4.87 18.35 -0.93 4.44 -4.09 9.46 -7.74 12.26 -4.16 3.15 -7.31 5.23 -8.03 5.23 -1.86 0 -1.08 1.94 2.87 6.88 7.96 10.04 8.82 13.12 6.52 24.80 -2.01 10.54 -1.22 14.19 4.23 18.49 3.80 3.01 8.96 4.73 17.13 5.66 3.66 0.50 7.53 1.29 8.60 1.86 4.30 2.15 4.66 7.24 1.22 16.20 -4.87 12.98 -12.69 22.72 -25.81 32.55 -3.15 2.29 -10.54 9.03 -16.34 14.84 -5.88 5.81 -10.97 10.61 -11.47 10.61 -0.43 0 -1.36 0.43 -1.94 1 -0.65 0.50 -2.72 1.51 -4.73 2.22 -1.94 0.72 -4.16 1.86 -4.95 2.44 -1.08 0.93 -3.30 1.15 -12.54 1.15 -12.98 -0.07 -15.34 -0.65 -34.12 -8.75 -20.72 -9.03 -33.98 -13.62 -43.66 -15.34 -5.09 -0.86 -14.41 -0.50 -16.70 0.65 -0.72 0.36 -3.80 1.79 -6.81 3.23 -3.08 1.43 -6.81 3.73 -8.32 5.16 -1.58 1.36 -3.23 2.51 -3.66 2.51 -3.30 0 -11.54 7.24 -14.27 12.54 -2.72 5.23 -3.08 15.41 -0.86 25.31 2.22 10.25 0.86 13.98 -6.45 17.71 -1.36 0.72 -3.37 1.72 -4.44 2.29 -4.44 2.22 -34.91 3.15 -41.94 1.29z m-7.03 -115.56 c-0.07 -52.76 0.07 -101.87 0.22 -109.11 l0.22 -13.12 7.38 -7.67 c9.96 -10.32 33.33 -35.70 43.44 -47.24 5.81 -6.60 8.75 -9.39 9.89 -9.39 l1.58 -0.07 0 116.56 c0 64.09 0.22 116.42 0.57 116.27 0.72 -0.36 14.34 -8.39 17.56 -10.39 l2.65 -1.65 0 -124.73 c0 -79.14 0.29 -124.80 0.72 -125.09 0.93 -0.57 23.37 -29.53 31.69 -40.86 10.75 -14.77 21.58 -29.82 24.16 -33.48 1.65 -2.51 2.72 -3.44 4.01 -3.44 l1.79 0 0.14 167.46 0.22 167.39 10.75 4.66 c21.29 9.25 28.96 10.97 37.28 8.53 7.89 -2.29 11.04 -4.44 22.22 -15.41 5.95 -5.73 13.55 -12.62 16.92 -15.20 8.10 -6.31 13.26 -12.04 16.13 -18.06 1.36 -2.72 2.29 -5.09 2.15 -5.23 -0.14 -0.22 -2.29 -0.79 -4.73 -1.36 -14.98 -3.51 -24.95 -12.69 -27.24 -25.23 -0.79 -4.59 -0.72 -5.95 1.22 -15.34 1.29 -6.31 1.36 -6.02 -4.59 -13.33 -7.67 -9.39 -9.53 -18.64 -4.66 -23.44 1 -1.08 4.23 -3.01 7.10 -4.37 9.25 -4.44 10.18 -8.10 4.37 -17.63 -1.79 -2.87 -3.80 -6.67 -4.52 -8.46 -1.79 -4.66 -1.58 -11.47 0.57 -17.20 1.15 -3.15 1.58 -5.23 1.22 -6.45 -1.51 -4.95 -7.24 -19.07 -8.17 -19.93 -2.15 -2.15 -5.81 -0.50 -12.19 5.59 -7.03 6.60 -9.53 8.03 -14.19 8.10 -3.87 0.07 -6.60 -1.86 -7.24 -5.09 -0.43 -2.08 2.29 -17.28 4.59 -25.81 2.87 -10.75 10.04 -22.22 23.30 -37.13 9.39 -10.54 9.32 -10.39 11.04 -16.70 2.94 -10.61 7.17 -14.12 18.35 -15.20 8.24 -0.72 9.39 -1.08 10.25 -2.65 0.36 -0.65 1.22 -6.52 1.86 -13.05 2.65 -26.52 6.24 -39.14 16.85 -60.65 3.58 -7.10 6.45 -13.48 6.45 -14.12 0 -0.79 -2.22 -1.86 -7.67 -3.66 -10.90 -3.58 -14.98 -4.44 -26.17 -5.81 -11.54 -1.36 -17.71 -2.94 -22.44 -5.73 -6.81 -3.94 -12.54 -11.25 -14.27 -18.14 -1 -3.94 -2.15 -4.37 -8.10 -3.08 -4.44 1 -6.60 0.29 -13.98 -4.73 -4.73 -3.23 -5.02 -3.37 -7.24 -2.44 -9.89 4.01 -15.27 4.52 -21.29 2.01 -11.76 -4.87 -21.51 -15.27 -23.30 -25.02 -0.29 -1.51 -0.72 -2.72 -1 -2.72 -0.29 0 -1.65 0.86 -3.01 1.86 -5.88 4.37 -13.19 5.16 -19.79 2.15 -6.02 -2.87 -8.53 -7.31 -9.89 -17.78 -0.50 -4.09 -1.94 -5.38 -11.11 -9.89 -6.67 -3.30 -16.20 -9.39 -19.86 -12.62 -1.29 -1.15 -4.09 -4.30 -6.16 -7.10 l-3.80 -5.02 -5.88 -0.43 c-11.04 -0.86 -16.85 -5.38 -21.22 -16.56 l-2.37 -5.95 -3.15 0.29 c-5.23 0.36 -16.49 3.51 -21.36 5.88 -6.38 3.15 -7.10 5.02 -7.96 20.22 -0.36 6.38 -1.15 13.76 -1.72 16.42 -2.44 11.18 -8.96 20.65 -18.85 27.24 -6.16 4.16 -8.53 5.30 -24.16 12.11 -18.85 8.24 -19.71 9.10 -20 20.50 -0.14 6.02 -0.36 7.38 -1.79 9.32 -2.15 3.08 -7.03 5.88 -12.98 7.53 -9.46 2.65 -28.53 1.08 -41.58 -3.37 -12.11 -4.09 -16.77 -8.89 -21.22 -21.65 -0.43 -1.29 -14.19 -1.29 -15.27 0 -0.50 0.65 0.50 4.09 3.80 12.33 5.16 12.83 8.10 23.58 10.25 36.92 2.51 15.34 2.51 16.20 0.86 17.78 -2.87 2.65 -6.38 3.15 -25.45 3.80 -14.27 0.43 -20.36 0.93 -25.81 2.01 -12.90 2.72 -14.84 2.08 -23.66 -7.53 -6.52 -7.10 -9.03 -8.89 -12.26 -8.89 -1.08 0 -5.95 1.29 -10.82 2.87 -5.38 1.79 -13.84 3.73 -21.43 5.02 -12.83 2.15 -21 4.44 -25.59 7.17 -3.01 1.79 -3.87 3.44 -2.08 4.09 4.80 1.65 11.83 4.87 13.41 6.09 2.51 2.01 3.94 5.02 3.94 8.46 0 4.01 -1.79 6.81 -5.95 9.39 -1.86 1.15 -3.37 2.44 -3.37 2.80 0 0.43 1.15 2.44 2.51 4.44 l2.44 3.66 9.53 0.07 c8.75 0.07 10.11 0.29 16.34 2.44 3.73 1.29 13.12 5.38 20.79 9.10 10.90 5.30 15.77 7.24 22.29 8.89 9.89 2.51 13.41 4.16 16.27 7.67 1.94 2.37 2.65 4.30 4.16 11.61 0.22 1.08 2.37 2.94 6.45 5.52 10.97 7.10 13.19 11.18 11.90 21.58 -0.93 7.03 -0.36 9.39 3.94 15.91 5.16 7.74 9.75 11.61 20.07 16.92 9.96 5.09 11.97 6.81 14.98 12.69 4.01 7.96 5.09 20.43 2.44 28.75 -0.79 2.44 -1.43 4.73 -1.43 4.95 0 0.22 2.29 3.30 5.02 6.81 3.01 3.73 6.67 9.61 8.96 14.27 4.09 8.32 9.68 23.80 9.68 26.95 0 2.72 -2.29 4.52 -5.16 3.94 -5.23 -1 -7.17 -3.01 -14.34 -15.13 -2.15 -3.51 -3.94 -4.16 -4.52 -1.58 -0.50 2.37 -2.08 13.84 -5.38 38.85 -6.60 50.32 -9.39 62.72 -18.06 79.43 -1.58 3.08 -2.80 5.66 -2.65 5.81 0.14 0.14 1.65 0.93 3.37 1.79 4.73 2.44 8.46 6.16 10.25 10.47 1 2.51 2.22 4.09 3.44 4.66 5.16 2.37 51.83 20.36 54.91 21.22 2.01 0.57 5.09 1 7.03 1 l3.37 0 0 -65.52 0 -65.52 9.89 -7.74 c11.40 -8.96 35.77 -29.25 44.59 -37.06 3.37 -3.01 6.52 -5.52 7.03 -5.52 0.65 0 0.86 19 0.86 92.69 l0 92.76 9.53 5.81 c5.16 3.23 9.82 5.81 10.18 5.88 0.50 0 0.72 -32.40 0.72 -95.84z"/>
  <path d="M278.14 422.95 l0 -34.41 31.18 0 31.18 0 0 8.10 0 8.10 -3.37 3.23 c-11.11 10.61 -57.06 49.39 -58.57 49.39 -0.22 0 -0.43 -15.48 -0.43 -34.41z"/>
  <path d="M361.22 364.52 c-0.07 -10.47 -0.14 -23.01 -0.14 -27.96 0 -4.95 0.07 -14.12 0.14 -20.43 l0.07 -11.47 31.18 0 31.18 0 0 5.30 0 5.30 -8.39 9.61 c-19.36 22.08 -52.83 58.64 -53.69 58.64 -0.14 0 -0.36 -8.53 -0.36 -19z"/>
  <path d="M444.31 255.06 c0.07 -19 0.29 -34.62 0.43 -34.77 0.07 -0.14 11.40 -0.14 25.09 -0.07 l24.87 0.22 -10.32 14.77 c-9.25 13.26 -39.57 54.41 -40.07 54.41 -0.14 0 -0.14 -15.56 0 -34.55z"/>
 </g>
</svg>